<svg xmlns="http://www.w3.org/2000/svg" version="1.1" xmlns:xlink="http://www.w3.org/1999/xlink" xmlns:svgjs="http://svgjs.dev/svgjs" viewBox="0 0 1422 800"><defs><filter id="uuunion-blur" x="-100%" y="-100%" width="400%" height="400%" color-interpolation-filters="sRGB">
        <feGaussianBlur in="SourceGraphic" stdDeviation="22 22" result="blur"></feGaussianBlur>
        <feDropShadow stdDeviation="57.84615384615385" in="blur" dx="47" dy="47" flood-color="hsl(335, 80%, 40%)" flood-opacity="0.05" x="0%" y="0%" width="100%" height="100%"></feDropShadow>
      </filter><filter id="uuunion-blur2" x="-100%" y="-100%" width="400%" height="400%" color-interpolation-filters="sRGB">
        <feGaussianBlur in="SourceGraphic" stdDeviation="22 22" result="blur"></feGaussianBlur>
        <feDropShadow stdDeviation="57.84615384615385" in="blur" dx="-47" dy="-47" flood-color="hsl(335, 80%, 40%)" flood-opacity="0.05" x="0%" y="0%" width="100%" height="100%"></feDropShadow>
      </filter><linearGradient gradientTransform="rotate(76, 0.5, 0.5)" x1="50%" y1="0%" x2="50%" y2="100%" id="uuunion-grad"><stop stop-color="hsl(235, 77%, 80%)" offset="10%"></stop><stop stop-color="hsl(335, 80%, 40%)" offset="90%"></stop></linearGradient><linearGradient gradientTransform="rotate(40, 0.5, 0.5)" x1="50%" y1="0%" x2="50%" y2="100%" id="uuunion-grad2"><stop stop-color="hsl(235, 77%, 80%)" offset="25%"></stop><stop stop-color="hsl(335, 80%, 40%)" offset="100%"></stop></linearGradient><linearGradient gradientTransform="rotate(6, 0.5, 0.5)" x1="50%" y1="0%" x2="50%" y2="100%" id="uuunion-grad3"><stop stop-color="hsl(235, 77%, 80%)" offset="0%"></stop><stop stop-color="hsl(335, 80%, 40%)" offset="75%"></stop></linearGradient></defs><path d="M-133.57 -81.15Q-120.52 -84.85 -107.47 -87.66 -94.43 -89.08 -81.38 -88.85 -68.33 -87 -55.28 -83.88 -42.23 -80.05 -29.18 -76.21 -16.14 -73.06 -3.09 -71.17 9.95 -70.89 23 -72.27 36.05 -75.05 49.1 -78.74 62.14 -82.65 75.19 -86.08 88.24 -88.4 101.29 -89.19 114.34 -88.31 127.39 -85.91 140.43 -82.43 153.48 -78.51 166.53 -74.86 179.58 -72.15 192.63 -70.86 205.68 -71.24 218.72 -73.21 231.77 -76.41 244.82 -80.27 257.87 -84.08 270.92 -87.15 283.97 -88.91 297.01 -89.05 310.06 -87.54 323.11 -84.65 336.16 -80.92 349.21 -77.02 362.26 -73.66 375.31 -71.46 388.35 -70.81 401.4 -71.83 414.45 -74.34 427.5 -77.88 440.55 -81.8 453.6 -85.4 466.64 -88.01 479.69 -89.16 492.74 -88.65 505.79 -86.55 518.84 -83.27 531.89 -79.39 544.93 -75.61 557.98 -72.64 571.03 -71.01 584.08 -71.01 597.13 -72.65 610.18 -75.62 623.22 -79.4 636.27 -83.28 649.32 -86.56 662.37 -88.65 675.42 -89.16 688.47 -88 701.52 -85.39 714.56 -81.79 727.61 -77.86 740.66 -74.33 753.71 -71.82 766.76 -70.81 779.81 -71.46 792.85 -73.67 805.9 -77.03 818.95 -80.94 832 -84.66 845.05 -87.54 858.1 -89.05 871.14 -88.91 884.19 -87.14 897.24 -84.07 910.29 -80.26 923.34 -76.4 936.39 -73.2 949.44 -71.23 962.48 -70.86 975.53 -72.15 988.58 -74.87 1001.63 -78.53 1014.68 -82.45 1027.73 -85.92 1040.77 -88.31 1053.82 -89.19 1066.87 -88.4 1079.92 -86.07 1092.97 -82.64 1106.02 -78.73 1119.07 -75.04 1132.11 -72.26 1145.16 -70.89 1158.21 -71.17 1171.26 -73.07 1184.31 -76.22 1197.36 -80.06 1210.4 -83.89 1223.45 -87.01 1236.5 -88.85 1249.55 -89.08 1262.6 -87.66 1275.65 -84.84 1288.7 -81.13 1301.74 -77.22 1314.79 -73.82 1327.84 -71.54 1340.89 -70.8 1353.94 -71.73 1366.99 -74.17 1380.03 -77.67 1393.08 -81.59 1406.13 -85.22 1419.18 -87.9 1432.23 -89.14 1445.28 -88.72 1458.33 -86.7 1471.37 -83.47 1484.42 -79.6 1497.47 -75.8 1510.52 -72.77 1523.57 -71.05 1536.62 -70.97 1538.19 -55.82 1541.83 -40.67 1547.25 -25.52 1554.01 -10.38 1561.59 4.76 1569.38 19.91 1576.75 35.06 1583.12 50.2 1587.99 65.35 1590.97 80.5 1591.81 95.64 1590.46 110.79 1587.01 125.94 1581.76 141.09 1575.1 156.23 1567.58 171.38 1559.78 186.53 1552.34 201.68 1545.84 216.82 1540.81 231.97 1537.63 247.12 1536.56 262.26 1537.7 277.41 1540.94 292.56 1546.04 307.71 1552.57 322.85 1560.04 338 1567.83 353.15 1575.33 368.29 1581.95 383.44 1587.16 398.59 1590.54 413.74 1591.82 428.88 1590.9 444.03 1587.86 459.18 1582.94 474.33 1576.52 489.47 1569.13 504.62 1561.34 519.77 1553.78 534.91 1547.05 550.06 1541.68 565.21 1538.1 580.36 1536.6 595.5 1537.3 610.65 1540.13 625.8 1544.88 640.94 1551.17 656.09 1558.49 671.24 1566.27 686.39 1573.88 701.53 1580.72 716.68 1586.25 731.83 1590.02 746.98 1591.74 762.12 1591.26 777.27 1588.63 792.42 1584.06 807.56 1577.91 822.71 1570.66 837.86 1562.9 853.01 1555.25 868.15 1548.3 883.3 1542.62 898.45 1529.51 898.27 1516.4 894.76 1503.29 888.56 1490.18 880.81 1477.07 872.9 1463.96 866.29 1450.85 862.17 1437.74 861.3 1424.63 863.83 1411.52 869.31 1398.41 876.73 1385.3 884.75 1372.19 891.9 1359.08 896.88 1345.97 898.79 1332.86 897.28 1319.75 892.61 1306.64 885.66 1293.53 877.67 1280.42 870.1 1267.31 864.34 1254.2 861.42 1241.09 861.89 1227.98 865.66 1214.87 872.04 1201.76 879.86 1188.65 887.71 1175.54 894.16 1162.43 898.02 1149.32 898.61 1136.21 895.8 1123.1 890.12 1109.99 882.59 1096.88 874.59 1083.77 867.58 1070.66 862.82 1057.55 861.2 1044.44 862.99 1031.33 867.89 1018.22 874.98 1005.11 883 992 890.46 978.89 896.02 965.78 898.66 952.67 897.9 939.56 893.88 926.45 887.33 913.34 879.45 900.23 871.67 887.12 865.4 874.01 861.79 860.9 861.49 847.79 864.57 834.68 870.45 821.57 878.07 808.46 886.05 795.35 892.92 782.24 897.43 769.13 898.77 756.02 896.7 742.91 891.58 729.8 884.35 716.69 876.33 703.58 868.97 690.47 863.63 677.36 861.26 664.25 862.31 651.14 866.57 638.03 873.28 624.92 881.22 611.81 888.93 598.7 895.01 585.59 898.36 572.48 898.36 559.37 895.02 546.26 888.95 533.15 881.24 520.04 873.31 506.93 866.59 493.82 862.32 480.71 861.26 467.6 863.62 454.49 868.95 441.38 876.3 428.27 884.32 415.16 891.56 402.05 896.68 388.94 898.77 375.83 897.44 362.72 892.93 349.61 886.07 336.5 878.1 323.39 870.47 310.28 864.58 297.17 861.5 284.06 861.78 270.95 865.38 257.84 871.64 244.73 879.43 231.62 887.31 218.51 893.87 205.4 897.89 192.29 898.66 179.18 896.03 166.07 890.48 152.96 883.02 139.85 875.01 126.74 867.91 113.63 863 100.52 861.2 87.41 862.81 74.3 867.56 61.19 874.57 48.08 882.56 34.97 890.09 21.86 895.79 8.75 898.6 -4.35 898.03 -17.46 894.17 -30.57 887.73 -43.68 879.89 -56.79 872.06 -69.9 865.68 -83.01 861.9 -96.12 861.42 -109.23 864.32 -129.78 866.37 -139.39 847.68 -141.78 832.7 -144.21 817.71 -146.47 802.73 -148.39 787.75 -149.82 772.77 -150.64 757.79 -150.79 742.81 -150.25 727.83 -149.07 712.85 -147.35 697.87 -145.21 682.88 -142.83 667.9 -140.4 652.92 -138.12 637.94 -136.15 622.96 -134.67 607.98 -133.78 593 -133.57 578.02 -134.04 563.03 -135.15 548.05 -136.83 533.07 -138.93 518.09 -141.29 503.11 -143.73 488.13 -146.04 473.15 -148.04 458.17 -149.58 443.18 -150.53 428.2 -150.81 413.22 -150.41 398.24 -149.36 383.26 -147.73 368.28 -145.66 353.3 -143.32 338.32 -140.89 323.33 -138.55 308.35 -136.51 293.37 -134.92 278.39 -133.91 263.41 -133.55 248.43 -133.89 233.45 -134.88 218.47 -136.45 203.49 -138.48 188.5 -140.81 173.52 -143.24 158.54 -145.59 143.56 -147.67 128.58 -149.31 113.6 -150.39 98.62 -150.81 83.64 -150.55 68.65 -149.62 53.67 -148.1 38.69 -146.11 23.71 -143.8 8.73 -141.37 -6.24 -139.01 -21.22 -136.89 -36.2 -135.2 -51.19 -134.06 -66.17 -133.57 -81.15" fill="url(#uuunion-grad)"></path><path d="M-133.58 -81.14Q-134.07 -66.16 -135.21 -51.18 -136.9 -36.2 -139.01 -21.22 -141.38 -6.24 -143.81 8.73 -146.12 23.71 -148.11 38.7 -149.63 53.68 -150.56 68.66 -150.82 83.64 -150.4 98.62 -149.32 113.6 -147.68 128.58 -145.6 143.56 -143.25 158.55 -140.82 173.53 -138.49 188.51 -136.46 203.49 -134.89 218.47 -133.9 233.45 -133.56 248.43 -133.92 263.41 -134.93 278.4 -136.52 293.38 -138.56 308.36 -140.9 323.34 -143.33 338.32 -145.67 353.3 -147.74 368.28 -145.36 388.83 -132.29 390.99 -123.22 388.33 -114.15 386.62 -105.08 386 -96.02 386.52 -86.95 388.14 -77.88 390.73 -68.81 394.08 -59.75 397.91 -50.68 401.91 -41.61 405.76 -32.54 409.13 -23.48 411.76 -6.34 413.84 -3.31 413.97 8.1 409.61 19.53 403.65 30.96 396.46 42.4 388.54 53.84 380.51 65.27 372.99 76.7 366.54 88.11 361.56 99.52 358.29 110.92 356.74 122.3 356.7 133.66 357.77 145.01 359.42 156.34 361.05 167.64 362.04 178.92 361.89 190.18 360.22 201.41 356.85 212.61 351.83 223.79 345.4 234.94 337.99 246.06 330.14 257.15 322.45 268.22 315.5 279.26 309.77 290.27 305.58 301.26 303.06 312.22 302.12 323.16 302.49 334.07 303.71 344.96 305.23 355.83 306.46 366.68 306.85 377.52 305.96 388.34 303.52 399.15 299.45 409.95 293.87 420.74 287.1 431.52 279.6 442.3 271.94 453.08 264.69 463.86 258.37 474.65 253.38 485.44 249.94 496.25 248.09 507.06 247.66 517.89 248.3 528.74 249.53 539.6 250.8 550.49 251.55 561.41 251.3 572.35 249.68 583.32 246.51 594.32 241.81 605.35 235.78 616.42 228.8 627.52 221.36 638.67 214 649.85 207.26 661.07 201.6 672.33 197.33 683.63 194.59 694.98 193.32 706.36 193.27 717.79 194.06 729.26 195.19 740.77 196.11 752.33 196.31 763.92 195.39 775.55 193.06 787.21 189.23 798.92 184 810.65 177.64 822.42 170.58 834.22 163.3 846.05 156.34 857.9 150.17 869.77 145.19 881.66 141.61 893.56 139.49 905.48 138.69 917.41 138.91 929.34 139.73 941.27 140.64 953.2 141.12 965.13 140.74 977.05 139.14 988.95 136.13 1000.83 131.72 1012.7 126.08 1024.54 119.52 1036.34 112.48 1048.12 105.47 1059.86 98.98 1071.56 93.42 1083.21 89.1 1094.82 86.16 1106.37 84.58 1117.87 84.15 1129.32 84.51 1140.7 85.24 1152.02 85.83 1163.28 85.82 1174.46 84.82 1185.58 82.57 1196.63 78.96 1207.6 74.06 1218.51 68.11 1229.33 61.46 1240.08 54.57 1250.76 47.91 1261.36 41.93 1271.89 36.99 1282.34 33.31 1292.72 30.95 1303.02 29.8 1313.26 29.62 1323.43 30.02 1333.53 30.55 1343.57 30.75 1353.55 30.21 1363.47 28.59 1373.33 25.73 1383.15 21.58 1392.92 16.29 1402.65 10.14 1412.34 3.52 1422 -3.12 1414.02 -20.57 1406.9 -38.01 1401.41 -55.46 1398.15 -72.9 1397.47 -90.35 1399.43 -107.79 1400.92 -132.28 1385.82 -136.05 1373.63 -133.4 1361.45 -131.78 1349.26 -131.44 1337.07 -132.42 1324.89 -134.59 1312.7 -137.6 1300.51 -140.98 1288.32 -144.21 1276.14 -146.78 1263.95 -148.3 1251.76 -148.52 1239.58 -147.41 1227.39 -145.15 1215.2 -142.09 1203.02 -138.7 1190.83 -135.51 1178.64 -133.02 1166.45 -131.62 1154.27 -131.52 1142.08 -132.74 1129.89 -135.09 1117.71 -138.2 1105.52 -141.59 1093.33 -144.74 1081.14 -147.14 1068.96 -148.44 1056.77 -148.42 1044.58 -147.08 1032.4 -144.65 1020.21 -141.49 1008.02 -138.1 995.84 -135 983.65 -132.68 971.46 -131.5 959.27 -131.64 947.09 -133.09 934.9 -135.6 922.71 -138.81 910.53 -142.19 898.34 -145.24 886.15 -147.47 873.97 -148.53 861.78 -148.27 849.59 -146.72 837.4 -144.12 825.22 -140.88 813.03 -137.5 800.84 -134.51 788.66 -132.38 776.47 -131.43 764.28 -131.81 752.09 -133.47 739.91 -136.14 727.72 -139.42 715.53 -142.78 703.35 -145.71 691.16 -147.75 678.97 -148.58 666.79 -148.08 654.6 -146.32 642.41 -143.57 630.22 -140.26 618.04 -136.92 605.85 -134.05 593.66 -132.11 581.48 -131.4 569.29 -132.02 557.1 -133.89 544.92 -136.7 532.73 -140.03 520.54 -143.36 508.35 -146.16 496.17 -148 483.98 -148.59 471.79 -147.85 459.61 -145.88 447.42 -143 435.23 -139.65 423.04 -136.35 410.86 -133.62 398.67 -131.88 386.48 -131.41 374.3 -132.27 362.11 -134.34 349.92 -137.28 337.74 -140.65 325.55 -143.92 313.36 -146.57 301.17 -148.2 288.99 -148.56 276.8 -147.58 264.61 -145.42 252.43 -142.41 240.24 -139.03 228.05 -135.8 215.86 -133.22 203.68 -131.7 191.49 -131.47 179.3 -132.56 167.12 -134.81 154.93 -137.87 142.74 -141.26 130.56 -144.45 118.37 -146.95 106.18 -148.37 93.99 -148.48 81.81 -147.27 69.62 -144.93 57.43 -141.82 45.25 -138.42 33.06 -135.28 20.87 -132.86 8.69 -131.56 -3.49 -131.57 -15.68 -132.89 -27.87 -135.32 -40.05 -138.48 -52.24 -141.87 -64.43 -144.97 -76.61 -147.3 -88.8 -148.49 -100.99 -148.35 -113.18 -146.92 -125.36 -144.41 -137.55 -141.21 -149.74 -137.82 -144.82 -123.6 -140.43 -109.42 -136.66 -95.27 -133.58 -81.14" fill="url(#uuunion-grad2)" filter="url(#uuunion-blur)"></path><path d="M1416.02 315.87Q1424.86 312.49 1433.7 309.73 1442.54 307.8 1451.38 306.87 1460.22 307.01 1469.06 308.21 1477.91 310.37 1486.75 313.32 1495.59 316.81 1504.43 320.57 1513.27 324.27 1522.11 327.63 1530.96 330.36 1539.8 332.25 1548.64 333.14 1557.48 332.95 1566.53 350.62 1575.33 368.29 1582.93 385.97 1588.5 403.64 1591.45 421.31 1591.45 438.98 1588.51 456.65 1582.94 474.33 1575.34 492 1566.55 509.67 1557.49 527.34 1549.16 545.01 1542.46 562.68 1538.1 580.36 1536.56 598.03 1538.01 615.7 1542.29 633.37 1548.93 651.04 1557.22 668.71 1566.27 686.39 1575.09 704.06 1582.73 721.73 1588.38 739.4 1591.4 757.07 1591.49 774.75 1588.63 792.42 1583.13 810.09 1575.59 827.76 1566.81 845.43 1557.75 863.1 1549.39 880.78 1542.62 898.45 1530.6 898.41 1518.57 895.55 1506.55 890.3 1494.52 883.46 1482.5 876.1 1470.47 869.33 1458.45 864.2 1446.42 861.49 1434.4 861.63 1422.37 864.59 1410.35 869.91 1398.32 876.79 1386.3 884.15 1374.27 890.88 1362.24 895.93 1350.22 898.54 1338.19 898.3 1326.17 895.25 1314.14 889.85 1302.12 882.94 1290.09 875.58 1278.07 868.9 1266.04 863.92 1254.02 861.41 1241.99 861.75 1229.97 864.9 1217.94 870.36 1205.92 877.31 1193.89 884.67 1181.87 891.31 1169.84 896.21 1157.82 898.62 1145.79 898.17 1133.76 894.93 1121.74 889.4 1109.71 882.42 1097.69 875.07 1085.66 868.47 1073.64 863.65 1061.61 861.34 1049.59 861.89 1037.56 865.22 1025.54 870.82 1013.51 877.83 1001.49 885.18 989.46 891.72 977.44 896.47 965.41 898.68 953.39 898.03 941.36 894.61 929.34 888.94 917.31 881.9 905.28 874.56 893.26 868.06 881.23 863.4 869.21 861.28 857.18 862.04 845.16 865.55 833.13 871.29 821.11 878.36 809.08 885.68 797.06 892.13 785.03 896.72 773.01 898.73 760.98 897.87 748.96 894.27 736.93 888.47 724.91 881.37 712.88 874.06 700.86 867.66 688.83 863.15 676.8 861.24 664.78 862.2 652.75 865.9 640.73 871.76 628.7 878.88 616.68 886.18 604.65 892.53 592.63 896.95 580.6 898.77 568.58 897.7 556.55 893.92 544.53 887.99 532.5 880.84 520.48 873.56 508.45 867.26 496.43 862.93 484.4 861.21 472.38 862.38 460.35 866.25 448.32 872.24 436.3 879.41 424.27 886.68 412.25 892.92 400.22 897.17 388.2 898.79 376.17 897.52 364.15 893.56 352.12 887.51 340.1 880.31 328.07 873.06 316.05 866.88 304.02 862.71 292 861.2 279.97 862.57 267.95 866.62 255.92 872.72 243.9 879.94 231.87 887.17 219.85 893.3 207.82 897.38 195.79 898.79 183.77 897.32 171.74 893.19 159.72 887.03 147.69 879.78 135.67 872.58 123.64 866.51 111.62 862.51 99.59 861.2 87.57 862.77 75.54 866.99 63.52 873.21 51.49 880.47 39.47 887.66 27.44 893.67 9.03 893.13 1.78 878.59 0.82 868.49 -0.2 858.39 -1.26 848.29 -2.31 838.19 -3.52 823.04 -3.22 818 8.93 810.24 21.18 799.87 33.53 787.54 45.97 774.25 58.5 761.13 71.1 749.27 83.78 739.57 96.51 732.56 109.29 728.34 122.12 726.57 134.96 726.51 147.82 727.17 160.69 727.43 173.54 726.25 186.38 722.84 199.18 716.75 211.95 707.99 224.67 696.97 237.34 684.46 249.95 671.49 262.49 659.13 274.98 648.35 287.4 639.87 299.77 634.02 312.07 630.72 324.33 629.48 336.54 629.48 348.72 629.72 360.87 629.15 373 626.87 385.12 622.27 397.26 615.1 409.41 605.51 421.59 594.08 433.81 581.63 446.08 569.17 458.42 557.69 470.83 548.02 483.33 540.68 495.91 535.85 508.58 533.26 521.35 532.32 534.22 532.16 547.18 531.81 560.24 530.32 573.39 526.94 586.62 521.23 599.93 513.12 613.3 502.93 626.72 491.31 640.18 479.12 653.66 467.32 667.14 456.79 680.61 448.21 694.05 441.93 707.45 437.94 720.77 435.86 734.02 434.99 747.16 434.49 760.18 433.41 773.08 430.94 785.83 426.5 798.42 419.8 810.85 410.94 820.68 406.45 830.5 401.22 840.32 395.64 850.12 390.12 859.91 385.09 869.69 380.9 879.46 377.85 889.22 376.11 898.97 375.72 908.71 376.6 918.43 378.53 928.15 381.21 937.85 384.26 947.54 387.24 957.22 389.76 966.88 391.44 976.54 392 986.18 391.26 995.81 389.19 1005.42 385.85 1015.02 381.46 1024.61 376.33 1034.19 370.83 1043.75 365.38 1053.3 360.38 1062.84 356.21 1072.36 353.14 1081.87 351.35 1091.36 350.89 1100.85 351.68 1110.32 353.52 1119.77 356.11 1129.21 359.07 1138.64 361.99 1148.06 364.46 1157.46 366.13 1166.85 366.71 1176.22 366.02 1185.59 364.01 1194.94 360.76 1204.28 356.47 1213.6 351.43 1222.91 346.01 1232.21 340.63 1241.5 335.67 1250.78 331.51 1260.04 328.43 1269.3 326.6 1278.54 326.07 1287.77 326.78 1296.99 328.52 1306.2 331.02 1315.4 333.89 1324.59 336.74 1333.77 339.17 1342.94 340.82 1352.1 341.42 1361.26 340.77 1370.4 338.83 1379.54 335.67 1388.67 331.46 1397.79 326.52 1406.91 321.19 1416.02 315.87" fill="url(#uuunion-grad3)" filter="url(#uuunion-blur2)"></path></svg>
