<svg xmlns="http://www.w3.org/2000/svg" version="1.1" xmlns:xlink="http://www.w3.org/1999/xlink"
	xmlns:svgjs="http://svgjs.dev/svgjs" viewBox="0 0 800 800" opacity="0.41">
	<defs>
		<symbol id="bbburst-shape-6" viewBox="0 0 133 116">
			<path
				d="M59.7487 10.2513c-13.6683-13.66839-35.8291-13.66839-49.4974 0-13.66839 13.6683-13.66839 35.8291 0 49.4974l49.4974-49.4974ZM66.5 66.5 41.7513 91.2487 66.5 115.997l24.7487-24.7483L66.5 66.5Zm56.249-6.7513c13.668-13.6683 13.668-35.8291 0-49.4974-13.669-13.66839-35.8294-13.66839-49.4977 0l49.4977 49.4974Zm-112.4977 0 31.5 31.5 49.4974-49.4974-31.5-31.5-49.4974 49.4974Zm80.9974 31.5 31.5003-31.5-49.4977-49.4974-31.5 31.5 49.4974 49.4974Z">
			</path>
		</symbol>
		<symbol id="bbburst-shape-7" viewBox="0 0 139 124">
			<path fill-rule="evenodd" clip-rule="evenodd"
				d="M70.1641 15.0917C54.6093.764854 37.8293-2.10782 24.4032 2.82615 10.3804 7.97941.763366 21.4591 1.00047 37.0608c.1068 7.0273 2.86132 13.7317 7.0039 20.2001C12.1442 63.7249 17.853 70.2322 24.25 76.9024c3.8209 3.9842 7.8871 8.0312 12.0767 12.201h.0001c10.0335 9.9862 20.7748 20.6766 30.5497 32.8956 1.38 1.725 3.8972 2.005 5.6223.624.6706-.536 1.1228-1.244 1.3439-2.011 9.5768-11.748 20.0328-22.0735 29.8163-31.7351 4.19-4.1373 8.256-8.1528 12.078-12.1062 6.396-6.6176 12.106-13.0752 16.247-19.4911 4.144-6.4196 6.905-13.0811 7.012-20.0691.237-15.5124-9.399-28.8902-23.411-33.99923-13.32-4.85681-29.9542-2.08621-45.4209 11.88043Zm-3.7351 7.4919C52.1278 8.44857 37.6826 6.46918 27.1626 10.3352 16.2859 14.3323 8.8148 24.7824 8.99955 36.9392c.07575 4.9844 2.03755 10.2234 5.74165 16.0072 3.707 5.7881 8.9752 11.8418 15.2827 18.4187 3.5798 3.7328 7.4978 7.6329 11.6 11.7163 9.0476 9.0063 18.9911 18.9046 28.1786 29.8666 9.2999-11.068 19.4036-21.0473 28.5839-30.1144l.0007-.0006c4.1019-4.0508 8.0189-7.9196 11.5979-11.6222 6.307-6.5252 11.573-12.5298 15.278-18.2697 3.703-5.7362 5.658-10.924 5.734-15.8531.184-12.0276-7.267-22.3914-18.153-26.3608-10.71-3.90518-25.4722-1.80041-40.0023 12.867-1.5547 1.5694-4.0874 1.5813-5.6568.0265-.3146-.3116-.5666-.6625-.7559-1.0371Z">
			</path>
		</symbol>
	</defs>
	<use xlink:href="#bbburst-shape-7" width="49.813789988562085" opacity="0.17478489277643305"
		transform="matrix(0.749255485853665,-0.6622810709345304,0.6622810709345304,0.749255485853665,-242.37917290331978,213.13385063061156)"
		fill="#ff4c88"></use>
	<use xlink:href="#bbburst-shape-6" width="19.236712560782564" opacity="0.7634262099661338"
		transform="matrix(0.9985340705423215,-0.05412679526983053,0.05412679526983053,0.9985340705423215,285.2885464350993,-64.98637851271349)"
		fill="#602089"></use>
	<use xlink:href="#bbburst-shape-6" width="26.952503857802327" opacity="0.47747340455110454"
		transform="matrix(0.8100766835654702,0.5863239435189126,-0.5863239435189126,0.8100766835654702,840.6226781989601,158.60000212729722)"
		fill="#cc0088"></use>
	<use xlink:href="#bbburst-shape-7" width="26.569298234008407" opacity="0.49261058879437825"
		transform="matrix(0.8550789187589458,-0.5184978714459995,0.5184978714459995,0.8550789187589458,-12.223509410759874,186.29438637987033)"
		fill="#602089"></use>
	<use xlink:href="#bbburst-shape-6" width="10.561779221142855" opacity="0.9517160314385735"
		transform="matrix(0.7708155646725792,-0.6370583688002951,0.6370583688002951,0.7708155646725792,119.9288911758265,90.17794276058129)"
		fill="#2c2891"></use>
	<use xlink:href="#bbburst-shape-7" width="11.30885803872754" opacity="0.9670805980935863"
		transform="matrix(0.952700521324096,-0.30391070509081397,0.30391070509081397,0.952700521324096,287.82189529238985,20.492392208059925)"
		fill="#602089"></use>
	<use xlink:href="#bbburst-shape-7" width="23.274169784952306" opacity="0.6808409129666493"
		transform="matrix(0.9994982516321828,0.031674042751279885,-0.031674042751279885,0.9994982516321828,322.86390689123846,120.3577114785794)"
		fill="#ff4c88"></use>
	<use xlink:href="#bbburst-shape-7" width="14.447574688970981" opacity="0.8058614413388372"
		transform="matrix(0.9878553850046944,-0.15537611887683106,0.15537611887683106,0.9878553850046944,407.1199233320162,48.24827632280551)"
		fill="#cc0088"></use>
	<use xlink:href="#bbburst-shape-6" width="10.944668748264704" opacity="0.915188374320037"
		transform="matrix(0.7542962498017912,-0.6565342089601682,0.6565342089601682,0.7542962498017912,159.89239952151422,74.53892666010563)"
		fill="#602089"></use>
	<use xlink:href="#bbburst-shape-7" width="26.761541124077347" opacity="0.3222272033190181"
		transform="matrix(0.76551039162978,0.6434235310484229,-0.6434235310484229,0.76551039162978,754.0100495375582,-200.51301488779848)"
		fill="#ff4c88"></use>
	<use xlink:href="#bbburst-shape-6" width="26.396003945361343" opacity="0.6524838831750199"
		transform="matrix(0.8044410671026717,0.5940324650713249,-0.5940324650713249,0.8044410671026717,474.0573026137678,37.74595241612013)"
		fill="#602089"></use>
	<use xlink:href="#bbburst-shape-6" width="36.15028153737576" opacity="-0.07494543729203573"
		transform="matrix(0.9775834654090111,-0.21054825612887154,0.21054825612887154,0.9775834654090111,-57.386843823540936,-315.2695472906993)"
		fill="#602089"></use>
	<use xlink:href="#bbburst-shape-7" width="35.394327214584514" opacity="0.39925583111908847"
		transform="matrix(0.7228866292076491,-0.6909666571642967,0.6909666571642967,0.7228866292076491,318.2787053305361,296.35937523626416)"
		fill="#ff4c88"></use>
	<use xlink:href="#bbburst-shape-6" width="19.64129411626334" opacity="0.6505406050472461"
		transform="matrix(0.8303800894766907,0.5571973680848493,-0.5571973680848493,0.8303800894766907,477.9895545588847,140.05094869279282)"
		fill="#2c2891"></use>
	<use xlink:href="#bbburst-shape-7" width="29.038970979624928" opacity="0.4689453315656221"
		transform="matrix(0.9967843997347471,-0.08013027171699864,0.08013027171699864,0.9967843997347471,235.21369271156846,210.1689990273543)"
		fill="#cc0088"></use>
	<use xlink:href="#bbburst-shape-6" width="14.363748436066517" opacity="0.7684437191243296"
		transform="matrix(0.748227090390266,0.6634427037854261,-0.6634427037854261,0.748227090390266,678.0878524895886,-6.674462014743824)"
		fill="#602089"></use>
	<use xlink:href="#bbburst-shape-6" width="17.859743202629975" opacity="0.7799979726910773"
		transform="matrix(0.9669004746345085,0.2551538205701853,-0.2551538205701853,0.9669004746345085,537.0145569470867,99.85091638674021)"
		fill="#602089"></use>
	<use xlink:href="#bbburst-shape-6" width="41.357032498878176" opacity="-0.08158622961724427"
		transform="matrix(0.9067870578226145,0.4215889369580356,-0.4215889369580356,0.9067870578226145,209.13373564918564,376.10095893181546)"
		fill="#cc0088"></use>
	<use xlink:href="#bbburst-shape-6" width="30.89097596733112" opacity="0.339672861613039"
		transform="matrix(0.9997031172571651,0.02436549499408453,-0.02436549499408453,0.9997031172571651,369.85612447015774,295.8824225832063)"
		fill="#cc0088"></use>
	<use xlink:href="#bbburst-shape-7" width="40.02775130791621" opacity="0.3632243879867122"
		transform="matrix(0.7911904695631136,-0.61156981684228,0.61156981684228,0.7911904695631136,-61.18479933097234,300.4621062385618)"
		fill="#ff4c88"></use>
	<use xlink:href="#bbburst-shape-6" width="21.421472932229417" opacity="0.7164171592674027"
		transform="matrix(0.9999444197054295,-0.010543125721142728,0.010543125721142728,0.9999444197054295,478.16046243150845,87.4253948329009)"
		fill="#602089"></use>
	<use xlink:href="#bbburst-shape-7" width="28.79538928434671" opacity="0.5612504755434491"
		transform="matrix(0.999946492519142,0.010344665227324513,-0.010344665227324513,0.999946492519142,343.69220999072263,-192.15497417253872)"
		fill="#ff4c88"></use>
	<use xlink:href="#bbburst-shape-6" width="45.693123170203556" opacity="0.03939842328130316"
		transform="matrix(0.9230043788402486,-0.38478944455601544,0.38478944455601544,0.9230043788402486,-26.249041756198437,-312.16778798183157)"
		fill="#2c2891"></use>
	<use xlink:href="#bbburst-shape-6" width="16.403079388097026" opacity="0.7802760957405332"
		transform="matrix(0.7346807827164653,0.6784129623666708,-0.6784129623666708,0.7346807827164653,757.8414951040024,65.63809845547786)"
		fill="#602089"></use>
	<use xlink:href="#bbburst-shape-6" width="37.08162985563668" opacity="0.10328781555029531"
		transform="matrix(0.859195950860664,-0.5116466730319269,0.5116466730319269,0.859195950860664,539.0071328903076,248.89209509009862)"
		fill="#cc0088"></use>
	<use xlink:href="#bbburst-shape-7" width="27.894285016413498" opacity="0.6712453459129688"
		transform="matrix(0.9979933184787974,-0.06331931989272907,0.06331931989272907,0.9979933184787974,284.05124194784696,-124.880609182907)"
		fill="#602089"></use>
	<use xlink:href="#bbburst-shape-6" width="34.72878587244689" opacity="0.16933158933214165"
		transform="matrix(0.7796382563361044,0.6262301408086318,-0.6262301408086318,0.7796382563361044,994.3350516883783,-32.299666751576524)"
		fill="#ff4c88"></use>
	<use xlink:href="#bbburst-shape-7" width="18.562898764947253" opacity="0.7648830205193763"
		transform="matrix(0.998373882449306,0.05700518259859544,-0.05700518259859544,0.998373882449306,371.1846957706885,97.09693055148188)"
		fill="#2c2891"></use>
	<use xlink:href="#bbburst-shape-6" width="34.86560933641968" opacity="0.5101434409770338"
		transform="matrix(0.9001163158742899,-0.4356496504037341,0.4356496504037341,0.9001163158742899,78.67726794473626,-129.46377364680023)"
		fill="#602089"></use>
	<use xlink:href="#bbburst-shape-7" width="45.95577887814242" opacity="0.3003556332914812"
		transform="matrix(0.9633208632871512,-0.26835222070200554,0.26835222070200554,0.9633208632871512,568.6656242714486,121.55864710758487)"
		fill="#2c2891"></use>
	<use xlink:href="#bbburst-shape-7" width="20.0256197557231" opacity="0.7045788646823775"
		transform="matrix(0.9990119431505067,-0.044442518410288845,0.044442518410288845,0.9990119431505067,351.5264968606825,-130.4935546323689)"
		fill="#2c2891"></use>
	<use xlink:href="#bbburst-shape-6" width="14.145613777367682" opacity="0.903921890991493"
		transform="matrix(0.7895793431516511,-0.6136484831466685,0.6136484831466685,0.7895793431516511,111.08428344887477,109.36521729832936)"
		fill="#2c2891"></use>
	<use xlink:href="#bbburst-shape-6" width="25.89982240019191" opacity="0.4990858082307199"
		transform="matrix(0.8774945991663337,-0.4795865181944916,0.4795865181944916,0.8774945991663337,283.6694213461403,-152.78784191315717)"
		fill="#cc0088"></use>
	<use xlink:href="#bbburst-shape-6" width="23.58415018320716" opacity="0.7300037376273012"
		transform="matrix(0.9066159776941906,0.421956714592394,-0.421956714592394,0.9066159776941906,622.8017726808363,-70.45400894901803)"
		fill="#cc0088"></use>
	<use xlink:href="#bbburst-shape-6" width="36.90484583176075" opacity="0.1175874375969932"
		transform="matrix(0.9881008675498837,0.15380726753689883,-0.15380726753689883,0.9881008675498837,82.5189967517039,-163.9734760485668)"
		fill="#ff4c88"></use>
	<use xlink:href="#bbburst-shape-6" width="17.69547392637572" opacity="0.76451357985373"
		transform="matrix(0.9956934934724446,-0.09270634852392239,0.09270634852392239,0.9956934934724446,349.4614479751915,108.41001849199091)"
		fill="#cc0088"></use>
	<use xlink:href="#bbburst-shape-6" width="28.17506874012732" opacity="0.47381739837670367"
		transform="matrix(0.998192796607565,0.06009276829010559,-0.06009276829010559,0.998192796607565,360.99878201265915,231.53830580780686)"
		fill="#cc0088"></use>
	<use xlink:href="#bbburst-shape-6" width="43.461965538664884" opacity="0.32889635258429795"
		transform="matrix(0.90564536161675,-0.4240359406725638,0.4240359406725638,0.90564536161675,-73.12617287631585,-56.20156692708832)"
		fill="#cc0088"></use>
	<use xlink:href="#bbburst-shape-6" width="13.554505969132581" opacity="0.8620239219337708"
		transform="matrix(0.7739464473816574,0.6332510533629702,-0.6332510533629702,0.7739464473816574,633.5929348396265,146.51128429002785)"
		fill="#602089"></use>
	<use xlink:href="#bbburst-shape-6" width="28.11373419120422" opacity="0.5145151516524284"
		transform="matrix(0.9943357739097087,0.10628437666647284,-0.10628437666647284,0.9943357739097087,230.1283373331091,-90.6750202172476)"
		fill="#2c2891"></use>
	<use xlink:href="#bbburst-shape-6" width="27.581264565560932" opacity="0.6210889121931344"
		transform="matrix(0.7966416808688692,0.6044518444859133,-0.6044518444859133,0.7966416808688692,660.410894720005,-94.91039779498615)"
		fill="#cc0088"></use>
	<use xlink:href="#bbburst-shape-6" width="44.07461415604401" opacity="0.38353264721862035"
		transform="matrix(0.8799985879060035,-0.47497629970709054,0.47497629970709054,0.8799985879060035,-23.719269874901187,-117.64676597956822)"
		fill="#cc0088"></use>
	<use xlink:href="#bbburst-shape-7" width="27.959140126385968" opacity="0.5330473618445803"
		transform="matrix(0.9601583770285784,0.27945642061302917,-0.27945642061302917,0.9601583770285784,528.2517521952868,219.9713399258307)"
		fill="#cc0088"></use>
	<use xlink:href="#bbburst-shape-6" width="37.62729454247137" opacity="0.03898460422182137"
		transform="matrix(0.9998161813462727,-0.019172989285898015,0.019172989285898015,0.9998161813462727,629.3263141786022,349.12140716650566)"
		fill="#602089"></use>
	<use xlink:href="#bbburst-shape-7" width="23.610679981431463" opacity="0.7471044831117574"
		transform="matrix(0.997046301650544,-0.07680281482453935,0.07680281482453935,0.997046301650544,471.03095241165266,8.753741327838668)"
		fill="#2c2891"></use>
	<use xlink:href="#bbburst-shape-7" width="38.15829240693013" opacity="0.05628420753862873"
		transform="matrix(0.9888104619457149,0.1491773117692569,-0.1491773117692569,0.9888104619457149,788.6554016718845,-241.82440924434388)"
		fill="#ff4c88"></use>
	<use xlink:href="#bbburst-shape-6" width="15.78493046178098" opacity="0.9007238287431023"
		transform="matrix(0.79310687518447,-0.6090824940310839,0.6090824940310839,0.79310687518447,186.08271285673197,114.05188913081071)"
		fill="#cc0088"></use>
	<use xlink:href="#bbburst-shape-6" width="28.86418038284628" opacity="0.5770670493258716"
		transform="matrix(0.7636275918230417,0.6456569530381764,-0.6456569530381764,0.7636275918230417,460.935140646303,124.10853755718267)"
		fill="#602089"></use>
	<use xlink:href="#bbburst-shape-6" width="31.31669890075882" opacity="0.17401757707181886"
		transform="matrix(0.9733018997352347,-0.22952867352856587,0.22952867352856587,0.9733018997352347,212.5952811799729,377.17636535513)"
		fill="#602089"></use>
	<use xlink:href="#bbburst-shape-6" width="38.549017933999004" opacity="0.1984765749513654"
		transform="matrix(0.899158261454543,0.4376236063765798,-0.4376236063765798,0.899158261454543,917.2360796125122,60.904084730880584)"
		fill="#602089"></use>
	<use xlink:href="#bbburst-shape-7" width="42.16237681660368" opacity="0.26677031509403015"
		transform="matrix(0.9982191692886581,-0.05965308093184612,0.05965308093184612,0.9982191692886581,165.83889382097112,-268.42116540361855)"
		fill="#ff4c88"></use>
	<use xlink:href="#bbburst-shape-7" width="27.942962449439655" opacity="0.6468028740567691"
		transform="matrix(0.9999949542327257,-0.00317671356732899,0.00317671356732899,0.9999949542327257,536.7972706353237,46.027322331981)"
		fill="#cc0088"></use>
	<use xlink:href="#bbburst-shape-6" width="12.604221038995505" opacity="0.8675487839520181"
		transform="matrix(0.7950365379989512,-0.6065615411865823,0.6065615411865823,0.7950365379989512,115.2418706147584,39.17775369803479)"
		fill="#ff4c88"></use>
	<use xlink:href="#bbburst-shape-7" width="41.156305819839936" opacity="0.15195173207312007"
		transform="matrix(0.8745606261554474,-0.484916189849949,0.484916189849949,0.8745606261554474,415.40135901190604,-246.18232441389767)"
		fill="#602089"></use>
	<use xlink:href="#bbburst-shape-7" width="21.612684289186063" opacity="0.5757992935015142"
		transform="matrix(0.7386274484899044,-0.6741138571022655,0.6741138571022655,0.7386274484899044,-4.037830865010108,254.97225241481055)"
		fill="#cc0088"></use>
	<use xlink:href="#bbburst-shape-7" width="32.395605474145825" opacity="0.3601012445974575"
		transform="matrix(0.9218576468654538,0.3875286814104065,-0.3875286814104065,0.9218576468654538,824.4362690356338,-19.80086410084141)"
		fill="#602089"></use>
	<use xlink:href="#bbburst-shape-7" width="40.75887593336674" opacity="0.4250994426839081"
		transform="matrix(0.7969057210620115,-0.6041036928695565,0.6041036928695565,0.7969057210620115,152.21866999995575,-164.87654395331543)"
		fill="#cc0088"></use>
	<use xlink:href="#bbburst-shape-6" width="45.09867727275786" opacity="0.1969638577376398"
		transform="matrix(0.9821844631026053,-0.187919345571037,0.187919345571037,0.9821844631026053,579.8435061357435,243.2447418663598)"
		fill="#2c2891"></use>
	<use xlink:href="#bbburst-shape-6" width="37.71497470280852" opacity="0.4916802203198325"
		transform="matrix(0.7323188622892189,0.6809618814114516,-0.6809618814114516,0.7323188622892189,430.47700522322054,77.05051751835538)"
		fill="#602089"></use>
	<use xlink:href="#bbburst-shape-6" width="27.886520884585664" opacity="0.677839619424314"
		transform="matrix(0.9342801947157179,-0.3565396440256824,0.3565396440256824,0.9342801947157179,366.7288849464933,-46.47165311422117)"
		fill="#ff4c88"></use>
	<use xlink:href="#bbburst-shape-6" width="42.977364654570565" opacity="0.28714742416259253"
		transform="matrix(0.8008635209257754,-0.598846909360289,0.598846909360289,0.8008635209257754,3.1254832910731807,381.08314515648715)"
		fill="#602089"></use>
	<use xlink:href="#bbburst-shape-6" width="35.75306343431201" opacity="0.14283350376185366"
		transform="matrix(0.9981941039202753,-0.06007104875727281,0.06007104875727281,0.9981941039202753,503.95055096954025,358.8950883147863)"
		fill="#ff4c88"></use>
	<use xlink:href="#bbburst-shape-6" width="37.349503823806664" opacity="0.195211586823281"
		transform="matrix(0.8716108870341553,-0.4901983900458394,0.4901983900458394,0.8716108870341553,227.5097545889515,420.4642214282508)"
		fill="#cc0088"></use>
	<use xlink:href="#bbburst-shape-7" width="33.57831139397355" opacity="0.580386554170224"
		transform="matrix(0.9784412791978617,0.20652521192738654,-0.20652521192738654,0.9784412791978617,612.4991826583854,124.33877159434945)"
		fill="#602089"></use>
	<use xlink:href="#bbburst-shape-7" width="13.957153650490284" opacity="0.7975234236586011"
		transform="matrix(0.9523663126354205,0.30495640107597755,-0.30495640107597755,0.9523663126354205,479.76366631778876,-66.99734513228339)"
		fill="#602089"></use>
	<use xlink:href="#bbburst-shape-6" width="45.075907014433355" opacity="0.25942069355703135"
		transform="matrix(0.9701005765848293,0.24270325772387527,-0.24270325772387527,0.9701005765848293,188.44875787789965,176.2742135998172)"
		fill="#602089"></use>
	<use xlink:href="#bbburst-shape-6" width="43.70515456528102" opacity="0.3933842237507006"
		transform="matrix(0.8773080012075855,0.47992777687601207,-0.47992777687601207,0.8773080012075855,752.687127185834,-166.7318965195372)"
		fill="#ff4c88"></use>
	<use xlink:href="#bbburst-shape-7" width="32.27120770920501" opacity="0.4598165867799259"
		transform="matrix(0.9734994960199755,-0.22868915857305866,0.22868915857305866,0.9734994960199755,417.5147458289178,222.8985622175723)"
		fill="#602089"></use>
	<use xlink:href="#bbburst-shape-6" width="20.818426341100633" opacity="0.6124823597260103"
		transform="matrix(0.7571070996718889,0.6532907772396763,-0.6532907772396763,0.7571070996718889,738.9460381270817,242.33512886013386)"
		fill="#602089"></use>
	<use xlink:href="#bbburst-shape-6" width="35.34455728260649" opacity="0.1397127683446594"
		transform="matrix(0.9454862670509812,-0.3256619701745979,0.3256619701745979,0.9454862670509812,383.6781371244382,-336.8551663492208)"
		fill="#602089"></use>
	<use xlink:href="#bbburst-shape-6" width="24.335302724583126" opacity="0.6344214226455895"
		transform="matrix(0.7960769734403884,0.6051953836225051,-0.6051953836225051,0.7960769734403884,500.645415684117,-24.316461650565202)"
		fill="#ff4c88"></use>
	<use xlink:href="#bbburst-shape-6" width="25.88862293523867" opacity="0.5931048473905426"
		transform="matrix(0.8645435010111633,0.5025579915386489,-0.5025579915386489,0.8645435010111633,707.1139911613145,-92.93396720856191)"
		fill="#ff4c88"></use>
	<use xlink:href="#bbburst-shape-7" width="36.91863844683012" opacity="0.1884162148610019"
		transform="matrix(0.9757480788195763,0.21889652048378042,-0.21889652048378042,0.9757480788195763,106.0810133609057,-31.322824682543114)"
		fill="#2c2891"></use>
	<use xlink:href="#bbburst-shape-7" width="16.051390570940132" opacity="0.867338587097558"
		transform="matrix(0.798194111715457,0.6024003320241221,-0.6024003320241221,0.798194111715457,694.1475639185726,73.14181430987622)"
		fill="#ff4c88"></use>
	<use xlink:href="#bbburst-shape-7" width="22.263120699396424" opacity="0.6178728564324398"
		transform="matrix(0.8301658544607675,-0.5575165056636653,0.5575165056636653,0.8301658544607675,336.4609286882297,41.26962513429561)"
		fill="#cc0088"></use>
	<use xlink:href="#bbburst-shape-7" width="14.540930872877132" opacity="0.825538971659401"
		transform="matrix(0.9997002809449875,-0.02448159060422593,0.02448159060422593,0.9997002809449875,306.9338692652181,20.157977679182693)"
		fill="#ff4c88"></use>
	<use xlink:href="#bbburst-shape-7" width="36.96225865874357" opacity="0.21875715700018894"
		transform="matrix(0.9902699857025558,0.1391594603922422,-0.1391594603922422,0.9902699857025558,431.9587568805993,-350.2300453473155)"
		fill="#2c2891"></use>
	<use xlink:href="#bbburst-shape-7" width="47.41648612861484" opacity="0.15759960123828387"
		transform="matrix(0.7251025958916161,-0.6886408537338166,0.6886408537338166,0.7251025958916161,-151.95611670727183,403.0320099957417)"
		fill="#602089"></use>
	<use xlink:href="#bbburst-shape-7" width="23.612616307797076" opacity="0.6808076980757627"
		transform="matrix(0.9558673329356765,-0.29379864163477093,0.29379864163477093,0.9558673329356765,296.9707680452716,162.42888460451195)"
		fill="#602089"></use>
	<use xlink:href="#bbburst-shape-6" width="36.27770858939073" opacity="0.49365204790989836"
		transform="matrix(0.9669750642279411,-0.25487099709729455,0.25487099709729455,0.9669750642279411,482.9118375084028,-86.82257827115853)"
		fill="#cc0088"></use>
	<use xlink:href="#bbburst-shape-7" width="45.28350422718162" opacity="-0.07251876884742448"
		transform="matrix(0.7614160412687192,0.6482635359934045,-0.6482635359934045,0.7614160412687192,995.7543056983174,408.90548228304954)"
		fill="#ff4c88"></use>
	<use xlink:href="#bbburst-shape-7" width="18.4620796293778" opacity="0.8360021979528869"
		transform="matrix(0.9083973001840002,0.41810805423768077,-0.41810805423768077,0.9083973001840002,508.66924778745744,86.9071659634136)"
		fill="#cc0088"></use>
	<use xlink:href="#bbburst-shape-6" width="31.10085773988551" opacity="0.2704485472276046"
		transform="matrix(0.8977312503554005,-0.44054353035236965,0.44054353035236965,0.8977312503554005,391.745730429569,321.0415758698975)"
		fill="#602089"></use>
	<use xlink:href="#bbburst-shape-6" width="34.41006177931964" opacity="0.16144860021221685"
		transform="matrix(0.8456690212338768,0.5337076976448221,-0.5337076976448221,0.8456690212338768,472.29506091432336,-302.9134104936555)"
		fill="#602089"></use>
	<use xlink:href="#bbburst-shape-6" width="14.62147591820547" opacity="0.9423164539815284"
		transform="matrix(0.7943813400032022,0.6074193663810177,-0.6074193663810177,0.7943813400032022,633.5766734350168,103.51595086989147)"
		fill="#ff4c88"></use>
	<use xlink:href="#bbburst-shape-7" width="30.44536641416078" opacity="0.39373245966754045"
		transform="matrix(0.9812975903918963,-0.19249685475627404,0.19249685475627404,0.9812975903918963,48.11892750915476,93.58840055185743)"
		fill="#cc0088"></use>
	<use xlink:href="#bbburst-shape-7" width="36.66398051635382" opacity="0.3825253303278532"
		transform="matrix(0.9611079906806735,0.2761728267765644,-0.2761728267765644,0.9611079906806735,403.43505034885146,-252.6795503497491)"
		fill="#602089"></use>
	<use xlink:href="#bbburst-shape-6" width="12.877910555109496" opacity="0.9314672927514134"
		transform="matrix(0.9392168906935874,0.34332438339836846,-0.34332438339836846,0.9392168906935874,523.9760811778916,-7.859068503016601)"
		fill="#cc0088"></use>
	<use xlink:href="#bbburst-shape-6" width="36.67731286610101" opacity="0.07597666846968132"
		transform="matrix(0.9997777127359638,-0.02108376428545296,0.02108376428545296,0.9997777127359638,164.95079552006317,360.3611513657765)"
		fill="#cc0088"></use>
	<use xlink:href="#bbburst-shape-6" width="12.924067165727884" opacity="0.8605393066443097"
		transform="matrix(0.7420215854104107,-0.6703759891173166,0.6703759891173166,0.7420215854104107,134.4835807853164,45.20741441355881)"
		fill="#cc0088"></use>
	<use xlink:href="#bbburst-shape-6" width="29.45838415111383" opacity="0.36293978496781465"
		transform="matrix(0.9778611048760157,0.2092550108615267,-0.2092550108615267,0.9778611048760157,543.0057523397455,282.8135187518182)"
		fill="#ff4c88"></use>
	<use xlink:href="#bbburst-shape-7" width="23.359638353444943" opacity="0.6226306473463228"
		transform="matrix(0.7439164063171525,0.6682726841732897,-0.6682726841732897,0.7439164063171525,618.5414773167963,259.5992181668405)"
		fill="#2c2891"></use>
	<use xlink:href="#bbburst-shape-6" width="34.37840202132791" opacity="0.33457416920192085"
		transform="matrix(0.986236087286492,-0.16534321919519637,0.16534321919519637,0.986236087286492,17.613328844428366,17.658688511630885)"
		fill="#cc0088"></use>
	<use xlink:href="#bbburst-shape-7" width="20.224858928568793" opacity="0.7214584557370571"
		transform="matrix(0.7877802633292487,-0.6159563756540715,0.6159563756540715,0.7877802633292487,21.746538687517187,110.49202614031549)"
		fill="#cc0088"></use>
	<use xlink:href="#bbburst-shape-6" width="19.09237857586763" opacity="0.7535266429203809"
		transform="matrix(0.840085066944703,-0.542454680407971,0.542454680407971,0.840085066944703,86.33664426360986,135.78348115316334)"
		fill="#602089"></use>
	<use xlink:href="#bbburst-shape-7" width="35.68114786950296" opacity="0.0556255174749114"
		transform="matrix(0.8527106322748811,0.5223835541107439,-0.5223835541107439,0.8527106322748811,235.6214878158727,278.4792112920167)"
		fill="#602089"></use>
	<use xlink:href="#bbburst-shape-6" width="20.15022190954116" opacity="0.7784254340750337"
		transform="matrix(0.9568990749581175,-0.290420661014844,0.290420661014844,0.9568990749581175,177.330521869245,-3.494654511762292)"
		fill="#602089"></use>
	<use xlink:href="#bbburst-shape-6" width="16.776805318954764" opacity="0.8335202017124415"
		transform="matrix(0.9416203568959988,-0.3366765561767731,0.3366765561767731,0.9416203568959988,309.61117572168683,-27.578761952000264)"
		fill="#cc0088"></use>
	<use xlink:href="#bbburst-shape-7" width="15.165960824964985" opacity="0.8658521219205525"
		transform="matrix(0.8292449312530009,-0.5588853585407348,0.5588853585407348,0.8292449312530009,191.21073474170217,129.12484907615595)"
		fill="#cc0088"></use>
	<use xlink:href="#bbburst-shape-6" width="13.419309909009165" opacity="0.8709096878612427"
		transform="matrix(0.9918491748682856,0.12741748040634368,-0.12741748040634368,0.9918491748682856,388.9041346041769,-15.044077975776418)"
		fill="#ff4c88"></use>
	<use xlink:href="#bbburst-shape-7" width="44.18346530299509" opacity="0.1622884131884722"
		transform="matrix(0.9907469220284716,0.1357222770627933,-0.1357222770627933,0.9907469220284716,137.5711177555474,-234.4348745091244)"
		fill="#cc0088"></use>
	<use xlink:href="#bbburst-shape-6" width="37.582903824449616" opacity="-0.07191871213601919"
		transform="matrix(0.9163571281992989,-0.40036185332563046,0.40036185332563046,0.9163571281992989,550.6209446839674,-312.71412813429623)"
		fill="#602089"></use>
	<use xlink:href="#bbburst-shape-7" width="45.62083126094558" opacity="0.28619011704718267"
		transform="matrix(0.7683128160599212,0.6400745399389619,-0.6400745399389619,0.7683128160599212,909.9292042988781,-93.63498343244993)"
		fill="#602089"></use>
	<use xlink:href="#bbburst-shape-7" width="31.817996917395952" opacity="0.4914019687780605"
		transform="matrix(0.7591032668789386,-0.6509702222173629,0.6509702222173629,0.7591032668789386,355.9279032438729,120.0189402019646)"
		fill="#2c2891"></use>
</svg>