<?xml version="1.0" encoding="UTF-8"?><svg id="a" xmlns="http://www.w3.org/2000/svg" width="32px" height="32px" viewBox="0 0 400 400"><path d="M287.53,130.82L218.4,48.99c-5.44-6.44-15.07-7.25-21.52-1.81L115.05,116.31c-6.44,5.44-7.25,15.07-1.81,21.52l69.14,81.83c5.44,6.44,15.07,7.25,21.52,1.81l81.83-69.14c6.44-5.44,7.25-15.07,1.81-21.52Zm-76.35,16.29c-7.06,5.96-17.62,5.08-23.58-1.98-5.96-7.06-5.08-17.62,1.98-23.58,7.06-5.96,17.62-5.08,23.58,1.98,5.96,7.06,5.08,17.62-1.98,23.58Z"/><path d="M283.74,244.32l-45.75-35.37-29.11,24.6c-4.19,3.54-9.38,5.43-14.8,5.43-.65,0-1.31-.03-1.97-.08-6.12-.51-11.67-3.38-15.64-8.07l-19.32-22.87-45.1,58.35c-5.16,6.67-3.93,16.26,2.74,21.42l84.76,65.52c6.67,5.16,16.26,3.93,21.42-2.74l65.52-84.76c5.16-6.67,3.93-16.26-2.74-21.42Zm-113.06,37.04c-5.65,7.31-16.16,8.66-23.47,3.01-7.31-5.65-8.66-16.16-3.01-23.47,5.65-7.31,16.16-8.66,23.47-3.01,7.31,5.65,8.66,16.16,3.01,23.47Zm83.65-10.22c-5.65,7.31-16.16,8.66-23.47,3.01-7.31-5.65-8.66-16.16-3.01-23.47,5.65-7.31,16.16-8.66,23.47-3.01,7.31,5.65,8.66,16.16,3.01,23.47Z"/></svg>