<svg xmlns="http://www.w3.org/2000/svg" direction="ltr" width="40" height="50" viewBox="611.5031260587887 239.3997068612727 176.86272008455762 207.56792864534322" stroke-linecap="round" stroke-linejoin="round" data-color-mode="light" class="tl-container tl-theme__force-sRGB tl-theme__light"><defs/><g transform="matrix(1, 0, 0, 1, 736.6126, 323.7594) scale(0.36855685242789676, 0.36855685242789676)" opacity="1"><g transform="scale(2.7132855987140725)"><path d="M0,-1.2309 T0.4697,-1.2219 1.6761,-1.2141 2.9801,-1.2236 4.2098,-1.2463 5.5772,-1.2711 6.9395,-1.296 8.2728,-1.3159 9.7794,-1.3275 10.61,-1.3335 A1.3335,1.3335 0 0 1 10.61,1.3335 T9.7794,1.3275 8.2728,1.3159 6.9395,1.296 5.5772,1.2711 4.2098,1.2463 2.9801,1.2236 1.6761,1.2141 0.4697,1.2219 0,1.2309 A1.2309,1.2309 0 0 1 0,-1.2309 Z" stroke-linecap="round" fill="#1d1d1d"/></g></g><g transform="matrix(1, 0, 0, 1, 737.2023, 325.8233) scale(0.36855685242789676, 0.36855685242789676)" opacity="1"><g transform="scale(2.7132855987140725)"><path d="M0,-1.2799 T0.4036,-1.2738 1.5044,-1.2772 2.8365,-1.3006 4.0652,-1.3258 5.2494,-1.3458 6.4298,-1.3618 7.9349,-1.3713 8.85,-1.3737 A1.3737,1.3737 0 0 1 8.85,1.3737 T7.9349,1.3713 6.4298,1.3618 5.2494,1.3458 4.0652,1.3258 2.8365,1.3006 1.5044,1.2772 0.4036,1.2738 0,1.2799 A1.2799,1.2799 0 0 1 0,-1.2799 Z" stroke-linecap="round" fill="#1d1d1d"/></g></g><g transform="matrix(1, 0, 0, 1, 738.6766, 327.5924) scale(0.36855685242789676, 0.36855685242789676)" opacity="1"><g transform="scale(2.7132855987140725)"><path d="M0,-1.2568 T0.4036,-1.2521 1.5044,-1.2593 2.809,-1.2821 4.0353,-1.3065 5.4221,-1.327 6.19,-1.3341 A1.3341,1.3341 0 0 1 6.19,1.3341 T5.4221,1.327 4.0353,1.3065 2.809,1.2821 1.5044,1.2593 0.4036,1.2521 0,1.2568 A1.2568,1.2568 0 0 1 0,-1.2568 Z" stroke-linecap="round" fill="#1d1d1d"/></g></g><g transform="matrix(1, 0, 0, 1, 737.4972, 329.6563) scale(0.36855685242789676, 0.36855685242789676)" opacity="1"><g transform="scale(2.7132855987140725)"><path d="M0,-1.2346 T0.5381,-1.2174 1.8019,-1.2025 3.1229,-1.2229 4.375,-1.2546 5.5666,-1.2803 6.7072,-1.3059 7.9046,-1.33 8.968,-1.3415 9.44,-1.3422 A1.3422,1.3422 0 0 1 9.44,1.3422 T8.968,1.3415 7.9046,1.33 6.7072,1.3059 5.5666,1.2803 4.375,1.2546 3.1229,1.2229 1.8019,1.2025 0.5381,1.2174 0,1.2346 A1.2346,1.2346 0 0 1 0,-1.2346 Z" stroke-linecap="round" fill="#1d1d1d"/></g></g><g transform="matrix(1, 0, 0, 1, 736.3178, 327.2975) scale(0.36855685242789676, 0.36855685242789676)" opacity="1"><g transform="scale(2.7132855987140725)"><path d="M0,-1.2249 T0.5381,-1.2084 1.9365,-1.1871 3.4366,-1.1912 4.7644,-1.2176 6.0852,-1.255 7.3118,-1.2901 8.4959,-1.3175 9.6733,-1.3393 10.8802,-1.3508 11.5,-1.3528 A1.3528,1.3528 0 0 1 11.5,1.3528 T10.8802,1.3508 9.6733,1.3393 8.4959,1.3175 7.3118,1.2901 6.0852,1.255 4.7644,1.2176 3.4366,1.1912 1.9365,1.1871 0.5381,1.2084 0,1.2249 A1.2249,1.2249 0 0 1 0,-1.2249 Z" stroke-linecap="round" fill="#1d1d1d"/></g></g><g transform="matrix(1, 0, 0, 1, 739.856, 330.5408) scale(0.36855685242789676, 0.36855685242789676)" opacity="1"><g transform="scale(2.7132855987140725)"><path d="M1.2605,0.2672 T1.1655,0.73 0.771,1.798 0.1892,2.9626 -0.3996,4.1495 -1.1683,5.3615 -1.9371,6.5583 -2.4315,7.7455 -3.0679,9.102 -3.5905,10.4662 -3.9901,11.8816 -4.3984,13.2992 -4.6194,14.5074 -4.9019,15.7307 -5.1799,16.9096 -5.3619,18.2911 -5.4371,19.8751 -5.4681,21.2376 -5.4672,22.4584 -5.2251,23.6313 -4.7344,24.7852 -4.1559,26.0263 -3.5134,27.1319 -2.7554,28.1244 -1.8475,29.1313 -0.8523,30.1903 0.1995,31.2814 1.2794,32.1656 2.3013,32.8854 3.3048,33.5207 4.4169,33.8575 5.6812,34.06 6.9844,34.2406 8.1934,34.2901 9.3257,34.062 10.3232,33.5113 11.1983,32.6712 12.0537,31.5765 12.794,30.4272 13.3138,29.3372 13.8257,28.2477 14.3004,26.9853 14.6671,25.6069 14.9487,24.0515 15.0763,22.6065 15.1091,21.3663 15.1174,20.031 14.9369,18.6585 14.5677,17.463 13.9157,16.4965 13.1275,15.5736 12.2724,14.4531 11.2894,13.3022 10.4047,12.3741 9.4587,11.316 8.4559,10.0574 7.6202,9.0072 6.9398,8.0232 6.2466,6.9281 5.5186,6.0509 4.7479,5.1278 3.9639,3.9353 3.2769,2.8178 2.8577,1.6711 2.7322,0.3698 2.7245,-0.2732 A1.4056,1.4056 0 0 1 5.5355,-0.3068 T5.4277,0.3238 5.7759,1.6893 6.4403,2.9142 7.0907,3.87 7.9638,4.9161 8.878,6.1294 9.7724,7.3018 10.6365,8.4477 11.6665,9.6685 12.6896,10.7358 13.5719,11.7328 14.4627,12.7892 15.3635,13.8946 16.1127,14.9209 16.8906,16.2678 17.5381,17.6706 17.8046,18.963 17.9,20.3977 17.8938,21.5654 17.8398,22.7871 17.674,24.2689 17.4028,25.7882 17.0902,27.1468 16.7897,28.3097 16.4362,29.3143 15.9303,30.3432 15.2983,31.5425 14.6352,32.6684 13.9874,33.5901 13.2057,34.4941 12.2066,35.4421 11.112,36.3664 9.968,36.9367 8.7699,37.0636 7.6385,37.0406 6.5758,36.9765 5.5083,36.811 4.3771,36.5526 3.2089,36.3006 2.0203,35.8566 0.8116,35.1035 -0.4199,34.2035 -1.7424,33.0455 -2.8287,32.0433 -3.7044,31.1764 -4.4558,30.1574 -5.2071,29.0255 -5.9184,27.8393 -6.5844,26.7276 -7.337,25.3788 -7.8823,23.8661 -8.09,22.464 -8.0812,21.2198 -8.0865,19.8248 -8.0743,18.11 -7.9381,16.6379 -7.6721,15.4027 -7.4018,14.2198 -7.1994,13.0909 -6.8502,11.7677 -6.4587,10.5215 -6.13,9.4841 -5.7261,8.4527 -5.156,7.2474 -4.4452,5.8418 -3.7482,4.5969 -3.1207,3.5389 -2.5463,2.5116 -1.8604,1.3826 -1.3696,0.2331 -1.2605,-0.2672 A1.2885,1.2885 0 0 1 1.2605,0.2672 Z" stroke-linecap="round" fill="#1d1d1d"/></g></g><g transform="matrix(1, 0, 0, 1, 698.1539, 321.8055) scale(0.6241542658265115, 0.6241542658265115)" opacity="1"><g transform="scale(1.6021680131846727)"><path d="M-2.0668,-0.3445 T-1.9463,-1.0273 -1.5966,-2.8178 -1.2759,-5.1008 -0.6194,-7.7998 0.4467,-10.1403 1.6326,-11.4995 3.128,-12.5277 4.8832,-13.1157 6.8158,-13.2374 9.0137,-13.2119 11.2096,-12.5698 12.8464,-10.6816 13.7873,-8.162 14.1539,-5.9715 14.2532,-3.7611 14.2831,-1.4743 14.2822,0.489 14.0808,2.3067 13.4719,4.5525 12.7732,7.0815 12.2146,9.1432 11.5188,11.1722 10.5865,13.4745 9.5917,15.8566 8.7529,18.1895 8.1502,20.516 7.6181,22.781 7.0623,24.8719 6.3723,27.0345 5.7093,28.7222 5.4654,29.29 A2.1335,2.1335 0 0 1 1.5346,27.63 T2.0855,26.3089 2.8983,24.0494 3.4858,21.8481 4.0189,19.5211 4.4121,17.5932 5.0627,15.4602 5.9999,13.0064 6.8742,10.7119 7.5337,8.7616 8.1237,6.7411 8.6971,4.6131 9.3114,2.51 9.676,0.4629 9.6668,-1.4505 9.6439,-3.5986 9.5416,-5.6725 8.6441,-7.6682 6.907,-8.7186 5.0277,-8.4572 3.5694,-7.1354 2.9825,-5.0241 2.5879,-2.4984 2.1743,-0.3407 2.0668,0.3445 A2.0953,2.0953 0 0 1 -2.0668,-0.3445 Z" stroke-linecap="round" fill="#1d1d1d"/></g></g><g transform="matrix(1, 0, 0, 1, 696.6539, 318.2259) scale(0.6241542658265115, 0.6241542658265115)" opacity="1"><g transform="scale(1.6021680131846727)"><path d="M-2.1201,0.424 T-2.2304,-0.1426 -3.0233,-1.8172 -4.3832,-3.6157 -5.8139,-4.8309 -7.1887,-4.6074 -8.4624,-2.6232 -9.5776,-0.0087 -10.0865,2.4141 -10.147,4.5689 -10.0916,6.7461 -9.6653,8.7436 -8.9256,10.5432 -8.034,12.2391 -7.0839,13.8355 -5.9739,15.6529 -4.4859,17.9872 -3.1031,20.0712 -2.0584,21.8247 -0.9948,23.4518 0.2103,25.2826 1.3245,27.1809 2.5539,29.0113 3.292,30.1028 A2.2479,2.2479 0 0 1 -0.292,32.8172 T-0.6883,32.3151 -1.683,30.7865 -2.8236,28.8794 -3.9255,27.0761 -5.2855,25.0522 -6.6088,22.9906 -7.9932,20.7928 -9.3588,18.7015 -10.5974,16.7156 -11.9203,14.6056 -12.9807,12.631 -13.9666,10.267 -14.6339,7.6946 -14.7819,5.2797 -14.7563,3.1972 -14.6149,1.233 -14.0194,-1.1319 -13.035,-3.5934 -12.0157,-5.7479 -10.6301,-7.512 -8.8514,-8.8597 -6.6508,-9.4869 -4.3834,-9.0982 -2.7334,-7.9523 -1.1459,-6.4339 0.3091,-4.7021 1.371,-2.6898 2.0024,-0.9974 2.1201,-0.424 A2.1621,2.1621 0 0 1 -2.1201,0.424 Z" stroke-linecap="round" fill="#1d1d1d"/></g></g><g transform="matrix(1, 0, 0, 1, 741.3152, 322.7391) scale(0.36835203391056953, 0.36835203391056953)" opacity="1"><g transform="scale(2.7147942944242986)"><path d="M-1.0533,-0.2118 T-0.9749,-0.6322 -0.8336,-1.9661 -0.7423,-3.4811 -0.6858,-4.7471 -0.632,-6.1086 -0.5606,-7.6886 -0.481,-9.4717 -0.4226,-11.1991 -0.3798,-13.484 -0.3483,-16.1543 -0.3253,-18.446 -0.3086,-20.5318 -0.2964,-22.4233 -0.3714,-24.6936 -0.4949,-27.0989 -0.5616,-29.0969 -0.6059,-30.8592 -0.7141,-32.6332 -0.8541,-34.4342 -0.9643,-35.8547 -1.0404,-37.2218 -1.0929,-38.5571 -1.1615,-40.3026 -1.244,-42.3404 -1.3248,-44.0338 -1.3898,-45.4423 -1.4573,-46.7129 -1.5177,-48.1942 -1.5419,-48.99 A1.1719,1.1719 0 0 1 0.8019,-48.99 T0.7777,-48.1943 0.7175,-46.7132 0.6504,-45.4431 0.587,-44.036 0.5113,-42.3449 0.4463,-40.3164 0.4073,-38.5822 0.4004,-37.2682 0.4081,-35.9277 0.4521,-34.5338 0.5954,-32.7036 0.6979,-30.8873 0.7306,-29.1428 0.8056,-27.1673 0.9425,-24.7328 1.0362,-22.4233 1.0482,-20.5317 1.0646,-18.4458 1.087,-16.154 1.1174,-13.4832 1.1582,-11.1975 1.213,-9.4685 1.2858,-7.6809 1.3447,-6.0919 1.3758,-4.7128 1.3904,-3.4053 1.3673,-2.2364 1.2885,-1.162 1.1436,-0.2068 1.0533,0.2118 A1.0744,1.0744 0 0 1 -1.0533,-0.2118 Z" stroke-linecap="round" fill="#1d1d1d"/></g></g><g transform="matrix(1, 0, 0, 1, 746.1875, 271.3997) scale(0.9507809844062468, 0.9507809844062468)" opacity="1"><g transform="scale(1.051766933080272)"><path d="M0,3.0912 T-1.083,3.0856 -3.629,3.1076 -7.0337,3.1728 -10.4823,3.2182 -14.4439,3.1718 -18.7475,3.1249 -22.2646,3.1461 -25.6112,3.2004 -28.7575,3.2746 -31.9939,3.3289 -35.3065,3.3713 -38.2951,3.4126 -41.7219,3.4289 -45.1535,3.4214 -48.0346,3.4138 -51.0116,3.4033 -54.1955,3.4112 -57.294,3.4424 -60.184,3.4716 -63.0404,3.496 -65.895,3.5159 -69.0735,3.954 -72.1451,4.8213 -75.1056,5.3521 -77.7204,5.4566 -78.6964,5.4685 A3.5766,3.5766 0 0 1 -78.7673,-1.6844 T-77.8403,-1.6913 -75.3268,-1.7639 -72.361,-2.078 -69.1527,-2.9255 -65.895,-3.5159 -63.0404,-3.496 -60.184,-3.4716 -57.294,-3.4424 -54.1955,-3.4112 -51.0116,-3.4033 -48.0346,-3.4138 -45.1535,-3.4214 -41.7219,-3.4289 -38.2951,-3.4126 -35.3065,-3.3713 -31.9939,-3.3289 -28.7575,-3.2746 -25.6112,-3.2004 -22.2646,-3.1461 -18.7475,-3.1249 -14.4439,-3.1718 -10.4823,-3.2182 -7.0337,-3.1728 -3.629,-3.1076 -1.083,-3.0856 0,-3.0912 A3.0912,3.0912 0 0 1 0,3.0912 ZM-75.4716,3.3627 T-75.7933,4.0455 -76.1929,6.3275 -76.2852,9.5423 -76.3205,13.1623 -76.3551,16.6208 -76.3792,19.5096 -76.4156,22.7067 -76.4357,26.321 -76.4515,30.4377 -76.5165,34.7946 -76.5828,38.8457 -76.6013,42.3891 -76.5881,45.4456 -76.5701,49.0779 -76.5467,53.2476 -76.5274,56.6559 -76.5234,59.5897 -76.5399,62.9168 -76.5626,66.3447 -76.5605,69.3693 -76.5351,72.672 -76.5319,76.3272 -76.5619,79.9224 -76.5951,83.663 -76.6003,86.9932 -76.5852,89.9888 -76.554,93.1779 -76.5034,96.2744 -76.4661,99.3807 -76.4397,102.6746 -76.4125,105.7822 -76.3862,108.6737 -76.3713,111.747 -76.3642,115.0357 -76.3633,118.5409 -76.449,122.1472 -76.8652,125.2607 -77.2243,128.3665 -77.2484,131.5186 -77.3423,134.6229 -77.8328,138.2181 -78.2284,140.1219 A3.56,3.56 0 0 1 -85.3116,139.3981 T-85.1066,137.6495 -84.6459,134.4124 -84.3832,131.4919 -84.3504,128.5891 -84.1134,125.3334 -83.6376,121.9742 -83.3767,118.5409 -83.3758,115.0357 -83.3687,111.747 -83.3538,108.6737 -83.3275,105.7822 -83.3003,102.6746 -83.2739,99.3807 -83.2366,96.2744 -83.186,93.1779 -83.1548,89.9888 -83.1397,86.9932 -83.1449,83.663 -83.1781,79.9224 -83.2081,76.3272 -83.2049,72.672 -83.1795,69.3693 -83.1774,66.3447 -83.2001,62.9168 -83.2166,59.5897 -83.2126,56.6559 -83.1933,53.2476 -83.1699,49.0779 -83.1519,45.4456 -83.1387,42.3891 -83.1572,38.8457 -83.2235,34.7946 -83.2884,30.4377 -83.3043,26.3209 -83.3243,22.7066 -83.3605,19.509 -83.384,16.619 -83.416,13.6439 -83.427,10.5652 -83.4077,7.6583 -83.1738,4.4594 -82.4717,1.5151 -81.9922,0.4215 A3.5766,3.5766 0 0 1 -75.4716,3.3627 Z" stroke-linecap="round" fill="#1d1d1d"/></g></g><g transform="matrix(1, 0, 0, 1, 643.5031, 414.9676) scale(0.9507809844062468, 0.9507809844062468)" opacity="1"><g transform="scale(1.051766933080272)"><path d="M-0.4857,-2.9144 T0.817,-3.1134 4.4675,-3.5209 9.2015,-3.7838 14.1852,-3.8291 18.1594,-3.8047 21.7939,-3.8075 26.2768,-3.8375 30.066,-3.8922 33.1952,-3.9635 36.3445,-4.0192 39.7201,-4.0925 42.9974,-4.1777 45.9181,-4.2484 48.7374,-4.2806 51.6551,-4.2816 54.9608,-4.3011 58.2142,-4.3411 61.1292,-4.3796 63.9897,-4.4117 67.0621,-4.4308 71.03,-4.0859 74.6803,-3.649 77.3808,-3.5517 81.2126,-3.5247 83.6725,-3.5076 A3.5076,3.5076 0 0 1 83.6675,3.5076 T81.1875,3.5174 77.2186,3.4992 73.9504,3.2978 70.4395,2.83 67.0621,2.5308 63.9897,2.5117 61.1292,2.4796 58.2142,2.4411 54.9608,2.4011 51.6551,2.3816 48.7374,2.3806 45.9181,2.3484 42.9974,2.2777 39.7202,2.1925 36.3446,2.1192 33.1956,2.0638 30.067,1.993 26.2799,1.9403 21.8026,1.917 18.1779,1.9254 14.248,1.9877 9.4303,2.082 5.1252,2.2907 1.7822,2.6802 0.4857,2.9144 A2.9546,2.9546 0 0 1 -0.4857,-2.9144 Z" stroke-linecap="round" fill="#1d1d1d"/></g></g></svg>